<?xml version="1.0" encoding="utf-8"?>

<svg version="1.1" id="Layer_1" xmlns="http://www.w3.org/2000/svg" xmlns:xlink="http://www.w3.org/1999/xlink" x="0px" y="0px"
	 viewBox="0 0 368.5 368.5" style="enable-background:new 0 0 368.5 368.5;" xml:space="preserve">
<rect x="6.36" y="7.17" width="12.24" height="24.47"/>
<rect x="6.36" y="31.65" width="12.24" height="24.47"/>
<rect x="6.36" y="56.12" width="12.24" height="36.71"/>
<rect x="6.36" y="105.06" width="12.24" height="12.24"/>
<rect x="6.36" y="129.54" width="12.24" height="12.24"/>
<rect x="6.36" y="154.01" width="12.24" height="48.95"/>
<rect x="6.36" y="227.43" width="12.24" height="12.24"/>
<rect x="6.36" y="251.9" width="12.24" height="12.24"/>
<rect x="6.36" y="276.37" width="12.24" height="85.65"/>
<rect x="18.6" y="7.17" width="12.24" height="12.24"/>
<rect x="18.6" y="80.59" width="12.24" height="12.24"/>
<rect x="18.6" y="129.54" width="12.24" height="36.71"/>
<rect x="18.6" y="202.96" width="12.24" height="12.24"/>
<rect x="18.6" y="239.66" width="12.24" height="12.24"/>
<rect x="18.6" y="276.37" width="12.24" height="12.24"/>
<rect x="18.6" y="349.79" width="12.24" height="12.24"/>
<rect x="30.83" y="7.17" width="12.24" height="12.24"/>
<rect x="30.83" y="31.65" width="12.24" height="24.47"/>
<rect x="30.83" y="56.12" width="12.24" height="12.24"/>
<rect x="30.83" y="80.59" width="12.24" height="12.24"/>
<rect x="30.83" y="105.06" width="12.24" height="36.71"/>
<rect x="30.83" y="178.48" width="12.24" height="12.24"/>
<rect x="30.83" y="202.96" width="12.24" height="24.47"/>
<rect x="30.83" y="251.9" width="12.24" height="12.24"/>
<rect x="30.83" y="276.37" width="12.24" height="12.24"/>
<rect x="30.83" y="300.85" width="12.24" height="36.71"/>
<rect x="30.83" y="349.79" width="12.24" height="12.24"/>
<rect x="43.07" y="7.17" width="12.24" height="12.24"/>
<rect x="43.07" y="31.65" width="12.24" height="24.47"/>
<rect x="43.07" y="56.12" width="12.24" height="12.24"/>
<rect x="43.07" y="80.59" width="12.24" height="12.24"/>
<rect x="43.07" y="154.01" width="12.24" height="24.47"/>
<rect x="43.07" y="215.19" width="12.24" height="24.47"/>
<rect x="43.07" y="251.9" width="12.24" height="12.24"/>
<rect x="43.07" y="276.37" width="12.24" height="12.24"/>
<rect x="43.07" y="300.85" width="12.24" height="36.71"/>
<rect x="43.07" y="349.79" width="12.24" height="12.24"/>
<rect x="55.31" y="7.17" width="12.24" height="12.24"/>
<rect x="55.31" y="31.65" width="12.24" height="24.47"/>
<rect x="55.31" y="56.12" width="12.24" height="12.24"/>
<rect x="55.31" y="80.59" width="12.24" height="12.24"/>
<rect x="55.31" y="105.06" width="12.24" height="12.24"/>
<rect x="55.31" y="129.54" width="12.24" height="24.47"/>
<rect x="55.31" y="190.72" width="12.24" height="12.24"/>
<rect x="55.31" y="215.19" width="12.24" height="36.71"/>
<rect x="55.31" y="276.37" width="12.24" height="12.24"/>
<rect x="55.31" y="300.85" width="12.24" height="36.71"/>
<rect x="55.31" y="349.79" width="12.24" height="12.24"/>
<rect x="67.54" y="7.17" width="12.24" height="12.24"/>
<rect x="67.54" y="80.59" width="12.24" height="12.24"/>
<rect x="67.54" y="117.3" width="12.24" height="24.47"/>
<rect x="67.54" y="166.25" width="12.24" height="36.71"/>
<rect x="67.54" y="215.19" width="12.24" height="12.24"/>
<rect x="67.54" y="276.37" width="12.24" height="12.24"/>
<rect x="67.54" y="349.79" width="12.24" height="12.24"/>
<rect x="79.78" y="7.17" width="12.24" height="24.47"/>
<rect x="79.78" y="31.65" width="12.24" height="24.47"/>
<rect x="79.78" y="56.12" width="12.24" height="36.71"/>
<rect x="79.78" y="105.06" width="12.24" height="12.24"/>
<rect x="79.78" y="129.54" width="12.24" height="12.24"/>
<rect x="79.78" y="154.01" width="12.24" height="12.24"/>
<rect x="79.78" y="178.48" width="12.24" height="12.24"/>
<rect x="79.78" y="202.96" width="12.24" height="12.24"/>
<rect x="79.78" y="227.43" width="12.24" height="12.24"/>
<rect x="79.78" y="251.9" width="12.24" height="12.24"/>
<rect x="79.78" y="276.37" width="12.24" height="85.65"/>
<rect x="92.02" y="117.3" width="12.24" height="24.47"/>
<rect x="92.02" y="154.01" width="12.24" height="12.24"/>
<rect x="92.02" y="202.96" width="12.24" height="24.47"/>
<rect x="92.02" y="251.9" width="12.24" height="12.24"/>
<rect x="104.25" y="19.41" width="12.24" height="12.24"/>
<rect x="104.25" y="56.12" width="12.24" height="12.24"/>
<rect x="104.25" y="80.59" width="12.24" height="12.24"/>
<rect x="104.25" y="129.54" width="12.24" height="24.47"/>
<rect x="104.25" y="202.96" width="12.24" height="12.24"/>
<rect x="104.25" y="227.43" width="12.24" height="12.24"/>
<rect x="104.25" y="251.9" width="12.24" height="24.47"/>
<rect x="104.25" y="300.85" width="12.24" height="12.24"/>
<rect x="104.25" y="325.32" width="12.24" height="12.24"/>
<rect x="104.25" y="349.79" width="12.24" height="12.24"/>
<rect x="116.49" y="31.65" width="12.24" height="24.47"/>
<rect x="116.49" y="56.12" width="12.24" height="12.24"/>
<rect x="116.49" y="92.83" width="12.24" height="97.89"/>
<rect x="116.49" y="239.66" width="12.24" height="12.24"/>
<rect x="116.49" y="264.14" width="12.24" height="12.24"/>
<rect x="116.49" y="300.85" width="12.24" height="61.18"/>
<rect x="128.73" y="19.41" width="12.24" height="12.24"/>
<rect x="128.73" y="56.12" width="12.24" height="12.24"/>
<rect x="128.73" y="80.59" width="12.24" height="12.24"/>
<rect x="128.73" y="129.54" width="12.24" height="36.71"/>
<rect x="128.73" y="178.48" width="12.24" height="12.24"/>
<rect x="128.73" y="202.96" width="12.24" height="12.24"/>
<rect x="128.73" y="276.37" width="12.24" height="12.24"/>
<rect x="128.73" y="300.85" width="12.24" height="12.24"/>
<rect x="128.73" y="325.32" width="12.24" height="36.71"/>
<rect x="140.96" y="19.41" width="12.24" height="12.24"/>
<rect x="140.96" y="31.65" width="12.24" height="12.24"/>
<rect x="140.96" y="56.12" width="12.24" height="12.24"/>
<rect x="140.96" y="92.83" width="12.24" height="24.47"/>
<rect x="140.96" y="129.54" width="12.24" height="12.24"/>
<rect x="140.96" y="202.96" width="12.24" height="12.24"/>
<rect x="140.96" y="227.43" width="12.24" height="12.24"/>
<rect x="140.96" y="251.9" width="12.24" height="24.47"/>
<rect x="140.96" y="288.61" width="12.24" height="12.24"/>
<rect x="140.96" y="313.08" width="12.24" height="48.95"/>
<rect x="153.2" y="7.17" width="12.24" height="12.24"/>
<rect x="153.2" y="31.65" width="12.24" height="24.47"/>
<rect x="153.2" y="56.12" width="12.24" height="12.24"/>
<rect x="153.2" y="80.59" width="12.24" height="48.95"/>
<rect x="153.2" y="141.77" width="12.24" height="12.24"/>
<rect x="153.2" y="178.48" width="12.24" height="24.47"/>
<rect x="153.2" y="215.19" width="12.24" height="12.24"/>
<rect x="153.2" y="239.66" width="12.24" height="24.47"/>
<rect x="153.2" y="288.61" width="12.24" height="12.24"/>
<rect x="153.2" y="313.08" width="12.24" height="12.24"/>
<rect x="153.2" y="337.56" width="12.24" height="24.47"/>
<rect x="165.43" y="19.41" width="12.24" height="12.24"/>
<rect x="165.43" y="43.88" width="12.24" height="12.24"/>
<rect x="165.43" y="56.12" width="12.24" height="12.24"/>
<rect x="165.43" y="117.3" width="12.24" height="12.24"/>
<rect x="165.43" y="141.77" width="12.24" height="12.24"/>
<rect x="165.43" y="178.48" width="12.24" height="12.24"/>
<rect x="165.43" y="215.19" width="12.24" height="12.24"/>
<rect x="165.43" y="239.66" width="12.24" height="12.24"/>
<rect x="165.43" y="276.37" width="12.24" height="12.24"/>
<rect x="165.43" y="325.32" width="12.24" height="12.24"/>
<rect x="165.43" y="349.79" width="12.24" height="12.24"/>
<rect x="177.67" y="7.17" width="12.24" height="12.24"/>
<rect x="177.67" y="68.35" width="12.24" height="24.47"/>
<rect x="177.67" y="129.54" width="12.24" height="48.95"/>
<rect x="177.67" y="227.43" width="12.24" height="48.95"/>
<rect x="177.67" y="337.56" width="12.24" height="24.47"/>
<rect x="189.91" y="31.65" width="12.24" height="12.24"/>
<rect x="189.91" y="68.35" width="12.24" height="12.24"/>
<rect x="189.91" y="92.83" width="12.24" height="12.24"/>
<rect x="189.91" y="141.77" width="12.24" height="12.24"/>
<rect x="189.91" y="190.72" width="12.24" height="12.24"/>
<rect x="189.91" y="251.9" width="12.24" height="12.24"/>
<rect x="189.91" y="288.61" width="12.24" height="24.47"/>
<rect x="189.91" y="337.56" width="12.24" height="12.24"/>
<rect x="202.14" y="56.12" width="12.24" height="12.24"/>
<rect x="202.14" y="80.59" width="12.24" height="12.24"/>
<rect x="202.14" y="117.3" width="12.24" height="24.47"/>
<rect x="202.14" y="166.25" width="12.24" height="12.24"/>
<rect x="202.14" y="202.96" width="12.24" height="61.18"/>
<rect x="202.14" y="276.37" width="12.24" height="48.95"/>
<rect x="202.14" y="337.56" width="12.24" height="24.47"/>
<rect x="214.38" y="19.41" width="12.24" height="12.24"/>
<rect x="214.38" y="68.35" width="12.24" height="12.24"/>
<rect x="214.38" y="92.83" width="12.24" height="24.47"/>
<rect x="214.38" y="129.54" width="12.24" height="97.89"/>
<rect x="214.38" y="239.66" width="12.24" height="122.36"/>
<rect x="226.62" y="31.65" width="12.24" height="24.47"/>
<rect x="226.62" y="80.59" width="12.24" height="12.24"/>
<rect x="226.62" y="105.06" width="12.24" height="12.24"/>
<rect x="226.62" y="166.25" width="12.24" height="12.24"/>
<rect x="226.62" y="239.66" width="12.24" height="12.24"/>
<rect x="226.62" y="264.14" width="12.24" height="24.47"/>
<rect x="226.62" y="325.32" width="12.24" height="24.47"/>
<rect x="238.85" y="7.17" width="12.24" height="24.47"/>
<rect x="238.85" y="43.88" width="12.24" height="12.24"/>
<rect x="238.85" y="56.12" width="12.24" height="24.47"/>
<rect x="238.85" y="92.83" width="12.24" height="24.47"/>
<rect x="238.85" y="141.77" width="12.24" height="12.24"/>
<rect x="238.85" y="190.72" width="12.24" height="12.24"/>
<rect x="238.85" y="239.66" width="12.24" height="12.24"/>
<rect x="238.85" y="264.14" width="12.24" height="24.47"/>
<rect x="238.85" y="325.32" width="12.24" height="36.71"/>
<rect x="251.09" y="19.41" width="12.24" height="12.24"/>
<rect x="251.09" y="31.65" width="12.24" height="12.24"/>
<rect x="251.09" y="68.35" width="12.24" height="48.95"/>
<rect x="251.09" y="154.01" width="12.24" height="48.95"/>
<rect x="251.09" y="215.19" width="12.24" height="12.24"/>
<rect x="251.09" y="239.66" width="12.24" height="73.42"/>
<rect x="251.09" y="337.56" width="12.24" height="24.47"/>
<rect x="263.33" y="117.3" width="12.24" height="12.24"/>
<rect x="263.33" y="154.01" width="12.24" height="85.65"/>
<rect x="263.33" y="251.9" width="12.24" height="12.24"/>
<rect x="263.33" y="300.85" width="12.24" height="24.47"/>
<rect x="263.33" y="349.79" width="12.24" height="12.24"/>
<rect x="275.56" y="7.17" width="12.24" height="24.47"/>
<rect x="275.56" y="31.65" width="12.24" height="24.47"/>
<rect x="275.56" y="56.12" width="12.24" height="36.71"/>
<rect x="275.56" y="117.3" width="12.24" height="12.24"/>
<rect x="275.56" y="154.01" width="12.24" height="24.47"/>
<rect x="275.56" y="190.72" width="12.24" height="73.42"/>
<rect x="275.56" y="276.37" width="12.24" height="12.24"/>
<rect x="275.56" y="300.85" width="12.24" height="12.24"/>
<rect x="275.56" y="337.56" width="12.24" height="24.47"/>
<rect x="287.8" y="7.17" width="12.24" height="12.24"/>
<rect x="287.8" y="80.59" width="12.24" height="12.24"/>
<rect x="287.8" y="129.54" width="12.24" height="12.24"/>
<rect x="287.8" y="154.01" width="12.24" height="12.24"/>
<rect x="287.8" y="178.48" width="12.24" height="24.47"/>
<rect x="287.8" y="239.66" width="12.24" height="24.47"/>
<rect x="287.8" y="300.85" width="12.24" height="12.24"/>
<rect x="287.8" y="325.32" width="12.24" height="36.71"/>
<rect x="300.04" y="7.17" width="12.24" height="12.24"/>
<rect x="300.04" y="31.65" width="12.24" height="24.47"/>
<rect x="300.04" y="56.12" width="12.24" height="12.24"/>
<rect x="300.04" y="80.59" width="12.24" height="12.24"/>
<rect x="300.04" y="105.06" width="12.24" height="12.24"/>
<rect x="300.04" y="178.48" width="12.24" height="12.24"/>
<rect x="300.04" y="251.9" width="12.24" height="85.65"/>
<rect x="300.04" y="349.79" width="12.24" height="12.24"/>
<rect x="312.27" y="7.17" width="12.24" height="12.24"/>
<rect x="312.27" y="31.65" width="12.24" height="24.47"/>
<rect x="312.27" y="56.12" width="12.24" height="12.24"/>
<rect x="312.27" y="80.59" width="12.24" height="12.24"/>
<rect x="312.27" y="117.3" width="12.24" height="12.24"/>
<rect x="312.27" y="154.01" width="12.24" height="73.42"/>
<rect x="312.27" y="239.66" width="12.24" height="12.24"/>
<rect x="312.27" y="276.37" width="12.24" height="24.47"/>
<rect x="312.27" y="325.32" width="12.24" height="12.24"/>
<rect x="324.51" y="7.17" width="12.24" height="12.24"/>
<rect x="324.51" y="31.65" width="12.24" height="24.47"/>
<rect x="324.51" y="56.12" width="12.24" height="12.24"/>
<rect x="324.51" y="80.59" width="12.24" height="12.24"/>
<rect x="324.51" y="129.54" width="12.24" height="12.24"/>
<rect x="324.51" y="215.19" width="12.24" height="12.24"/>
<rect x="324.51" y="264.14" width="12.24" height="12.24"/>
<rect x="324.51" y="313.08" width="12.24" height="12.24"/>
<rect x="336.74" y="7.17" width="12.24" height="12.24"/>
<rect x="336.74" y="80.59" width="12.24" height="12.24"/>
<rect x="336.74" y="105.06" width="12.24" height="12.24"/>
<rect x="336.74" y="129.54" width="12.24" height="36.71"/>
<rect x="336.74" y="178.48" width="12.24" height="36.71"/>
<rect x="336.74" y="227.43" width="12.24" height="24.47"/>
<rect x="336.74" y="264.14" width="12.24" height="24.47"/>
<rect x="336.74" y="313.08" width="12.24" height="12.24"/>
<rect x="336.74" y="337.56" width="12.24" height="24.47"/>
<rect x="348.98" y="7.17" width="12.24" height="24.47"/>
<rect x="348.98" y="31.65" width="12.24" height="24.47"/>
<rect x="348.98" y="56.12" width="12.24" height="36.71"/>
<rect x="348.98" y="117.3" width="12.24" height="24.47"/>
<rect x="348.98" y="154.01" width="12.24" height="36.71"/>
<rect x="348.98" y="202.96" width="12.24" height="36.71"/>
<rect x="348.98" y="264.14" width="12.24" height="73.42"/>
<rect x="348.98" y="349.79" width="12.24" height="12.24"/>
</svg>
